<svg height="512pt" viewBox="-17 0 512 512" width="512pt" xmlns="http://www.w3.org/2000/svg"><path d="m354.890625 178.378906c-.261719 11.542969-1.113281 32.929688 1.75 38.65625 4.242187 8.398438 7.617187 17.210938 10.066406 26.296875l1.738281 6.941407-43.652343 7.808593c-2.484375-10.09375-6.496094-19.75-11.894531-28.628906-16.992188-27.855469-13.554688-60.9375-2.683594-90.605469zm0 0" fill="#f0c419"/><path d="m120.425781 102.140625 10.960938-36.414063c.949219-3.148437.035156-6.558593-2.355469-8.816406l-38.457031-36.257812-5.933594 52.519531c-.367187 3.265625 1.140625 6.457031 3.894531 8.25z" fill="#84b5cb"/><path d="m191.609375 86.085938 18.796875-33.054688c1.625-2.859375 1.492188-6.390625-.335938-9.121094l-29.410156-43.910156-17.484375 49.875c-1.085937 3.101562-.328125 6.550781 1.960938 8.910156l26.46875 27.300782" fill="#84b5cb"/><path d="m75.015625 169.902344.488281-38.023438c.039063-3.285156-1.777344-6.316406-4.699218-7.820312l-46.964844-24.242188 8.789062 52.113282c.546875 3.242187 2.875 5.898437 6.019532 6.855468z" fill="#84b5cb"/><path d="m159.042969 448.652344-142.578125 44.515625c-4.597656 1.40625-9.46875-1.148438-10.933594-5.726563l-5.121094-16.574218c-.699218-2.1875-.4999998-4.5625.5625-6.601563 1.058594-2.035156 2.886719-3.566406 5.078125-4.246094l147.351563-45.90625v-.085937" fill="#59474e"/><path d="m198.183594 323.171875c-3.644532 0-6.898438-2.277344-8.148438-5.695313l-77.753906-212.351562c-1.121094-2.921875-.578125-6.222656 1.417969-8.632812 1.996093-2.414063 5.136719-3.5625 8.21875-3.011719 3.078125.554687 5.625 2.722656 6.65625 5.679687l77.757812 212.347656c.96875 2.664063.582031 5.628907-1.042969 7.953126-1.621093 2.320312-4.273437 3.707031-7.105468 3.710937zm0 0" fill="#805333"/><path d="m216.308594 289.496094c-4.367188-.003906-8.046875-3.253906-8.597656-7.585938l-24.734376-194.730468c-.390624-3.078126.890626-6.128907 3.359376-8.003907 2.46875-1.878906 5.75-2.292969 8.609374-1.09375 2.859376 1.199219 4.863282 3.832031 5.253907 6.910157l24.730469 194.734374c.601562 4.753907-2.761719 9.09375-7.515626 9.703126-.367187.042968-.738281.066406-1.105468.066406zm0 0" fill="#805333"/><path d="m191.507812 338.09375c-2.773437.003906-5.382812-1.316406-7.019531-3.558594l-116.457031-159.5c-2.828125-3.871094-1.980469-9.300781 1.890625-12.128906s9.300781-1.980469 12.128906 1.886719l116.457031 159.503906c1.925782 2.636719 2.210938 6.132813.730469 9.042969-1.476562 2.914062-4.464843 4.75-7.730469 4.753906zm0 0" fill="#805333"/><path d="m229.769531 459.238281-56.5-4.84375c-8.410156-.722656-15.949219-5.476562-20.222656-12.757812-4.277344-7.28125-4.753906-16.183594-1.285156-23.878907l1.640625-3.644531 49.117187-109.257812 6.597657-14.636719c3.53125-7.835938 10.703124-13.425781 19.164062-14.933594l20.058594-3.578125 76.453125-13.625 43.652343-7.808593 83.535157-14.9375c3.742187-.632813 7.46875 1.191406 9.265625 4.535156 32.160156 57.890625-8.738282 198.65625-18.75 230.804687-1.210938 3.878907-4.96875 6.386719-9.015625 6.019531l-52.714844-4.527343" fill="#7f6e5d"/><path d="m310.214844 512c-57.511719 0-104.136719-46.625-104.136719-104.136719s46.625-104.132812 104.136719-104.132812c57.511718 0 104.136718 46.621093 104.136718 104.132812-.066406 57.488281-46.652343 104.070313-104.136718 104.136719zm0-190.914062c-47.925782 0-86.78125 38.851562-86.78125 86.777343 0 47.929688 38.855468 86.78125 86.78125 86.78125 47.925781 0 86.777344-38.851562 86.777344-86.78125-.050782-47.902343-38.871094-86.726562-86.777344-86.777343zm0 0" fill="#f0c419"/><path d="m351.523438 131.558594c3.433593 1.347656 6.332031 3.785156 8.242187 6.941406l20.394531 33.324219v.085937l61.4375 23.953125c7.742188 3.042969 12.234375 11.148438 10.710938 19.328125-1.527344 8.175782-8.640625 14.121094-16.957032 14.167969-2.199218.023437-4.382812-.386719-6.421874-1.214844l-66.90625-26.121093c-3.503907-1.355469-6.460938-3.824219-8.417969-7.03125l-1.910157-3.035157-.433593-.78125c-.023438-.023437-.039063-.054687-.039063-.085937 0-.035156.015625-.066406.039063-.085938l-21.175781-34.453125c-.085938-.175781-.171876-.261719-.257813-.433593" fill="#547580"/><path d="m405.671875 34.710938-17.355469 26.035156c-2.34375-1.5625-4.6875-3.039063-7.03125-4.425782v-.085937c-10.074218-6.785156-22.054687-10.160156-34.1875-9.632813-14.003906.722657-26.785156 8.195313-34.28125 20.046876-8.851562 14.664062-2.601562 33.320312 3.039063 47.8125 1.300781 2.207031 2.320312 4.570312 3.035156 7.03125-8.675781 17.355468-43.386719 17.355468-43.386719 17.355468 4.335938-8.277344 7.128906-17.277344 8.242188-26.554687 1.042968-11.542969-1.476563-23.171875-.171875-34.625 1.121093-10.703125 4.941406-20.945313 11.105469-29.765625 16.339843-21.578125 43.035156-32.6875 69.859374-29.070313 8.480469 1.089844 16.722657 3.582031 24.382813 7.375 1.214844.609375 16.75 8.417969 16.75 8.503907zm0 0" fill="#c03a2b"/><g fill="#f0c419"><path d="m386.320312 96.757812c.375 3.171876-1.011718 6.296876-3.617187 8.140626s-6.011719 2.117187-8.878906.710937l-2.863281-1.472656 5.640624 22.5625c.449219 1.71875-.203124 3.539062-1.644531 4.578125-1.445312 1.039062-3.378906 1.082031-4.863281.105468-14.9375-10.300781-33.503906-13.886718-51.203125-9.890624-.714844-2.460938-1.734375-4.824219-3.035156-7.03125-5.640625-14.492188-11.890625-33.148438-3.039063-47.8125 7.496094-11.851563 20.277344-19.324219 34.28125-20.046876 12.132813-.527343 24.113282 2.847657 34.1875 9.632813v.085937zm0 0"/><path d="m296.941406 384.523438c-3.507812 0-6.675781-2.113282-8.019531-5.359376l-23.257813-56.144531c-1.832031-4.429687.269532-9.503906 4.695313-11.339843 4.429687-1.835938 9.503906.265624 11.339844 4.695312l23.257812 56.144531c1.105469 2.679688.804688 5.730469-.804687 8.140625-1.605469 2.410156-4.3125 3.859375-7.207032 3.863282zm0 0"/><path d="m346.75 504.714844c-3.511719 0-6.675781-2.117188-8.023438-5.359375l-23.257812-56.144531c-1.203125-2.867188-.777344-6.160157 1.109375-8.628907 1.890625-2.472656 4.957031-3.742187 8.039063-3.332031 3.082031.410156 5.710937 2.4375 6.886718 5.316406l23.257813 56.144532c1.105469 2.679687.804687 5.730468-.804688 8.140624-1.609375 2.410157-4.3125 3.859376-7.210937 3.863282zm0 0"/><path d="m342.234375 403.269531c-4.144531.007813-7.714844-2.917969-8.523437-6.980469-.808594-4.066406 1.367187-8.136718 5.199218-9.71875l56.144532-23.253906c4.429687-1.835937 9.507812.265625 11.339843 4.695313 1.835938 4.425781-.265625 9.503906-4.695312 11.335937l-56.144531 23.257813c-1.050782.4375-2.179688.664062-3.320313.664062zm0 0"/><path d="m222.046875 453.078125c-4.144531.003906-7.714844-2.917969-8.527344-6.984375-.808593-4.066406 1.371094-8.132812 5.199219-9.714844l56.148438-23.257812c2.867187-1.203125 6.160156-.78125 8.628906 1.109375 2.46875 1.886719 3.738281 4.953125 3.332031 8.035156-.410156 3.082031-2.4375 5.710937-5.316406 6.886719l-56.148438 23.257812c-1.050781.4375-2.179687.664063-3.316406.667969zm0 0"/><path d="m323.484375 384.523438c-2.894531-.003907-5.601563-1.453126-7.207031-3.863282-1.609375-2.410156-1.910156-5.460937-.804688-8.140625l23.257813-56.144531c1.1875-2.863281 3.8125-4.878906 6.886719-5.28125 3.074218-.40625 6.128906.859375 8.015624 3.320312 1.886719 2.460938 2.320313 5.742188 1.132813 8.605469l-23.257813 56.144531c-1.34375 3.246094-4.511718 5.359376-8.023437 5.359376zm0 0"/><path d="m273.679688 504.714844c-2.898438-.003906-5.601563-1.453125-7.210938-3.863282-1.609375-2.410156-1.910156-5.460937-.800781-8.140624l23.257812-56.144532c1.175781-2.878906 3.804688-4.90625 6.886719-5.316406s6.148438.859375 8.035156 3.332031c1.890625 2.46875 2.3125 5.761719 1.109375 8.628907l-23.257812 56.144531c-1.34375 3.242187-4.507813 5.359375-8.019531 5.359375zm0 0"/><path d="m398.382812 453.078125c-1.140624-.003906-2.265624-.230469-3.320312-.667969l-56.144531-23.253906c-2.878907-1.179688-4.90625-3.804688-5.316407-6.890625-.410156-3.082031.863282-6.148437 3.332032-8.035156 2.46875-1.890625 5.761718-2.3125 8.628906-1.109375l56.144531 23.257812c3.832031 1.582032 6.007813 5.652344 5.199219 9.714844s-4.378906 6.988281-8.523438 6.984375zm0 0"/><path d="m278.191406 403.269531c-1.136718 0-2.265625-.226562-3.316406-.664062l-56.148438-23.257813c-2.863281-1.1875-4.875-3.8125-5.28125-6.886718-.402343-3.070313.863282-6.128907 3.324219-8.015626 2.457031-1.886718 5.738281-2.316406 8.601563-1.132812l56.148437 23.257812c3.832031 1.582032 6.007813 5.652344 5.199219 9.71875-.8125 4.0625-4.382812 6.988282-8.527344 6.980469zm0 0"/><path d="m318.890625 407.863281c0 4.792969-3.882813 8.679688-8.675781 8.679688-4.792969 0-8.679688-3.886719-8.679688-8.679688s3.886719-8.675781 8.679688-8.675781c4.792968 0 8.675781 3.882812 8.675781 8.675781zm0 0"/></g><path d="m353.605469 138.847656c0-9.585937-9.714844-17.355468-21.695313-17.355468-11.984375 0-21.695312 7.769531-21.695312 17.355468 0 9.585938 9.710937 17.355469 21.695312 17.355469 11.980469 0 21.695313-7.769531 21.695313-17.355469zm0 0" fill="#84b5cb"/><path d="m362.273438 295.050781c-4.449219-.019531-8.164063-3.398437-8.601563-7.828125-.433594-4.429687 2.550781-8.46875 6.910156-9.355468l107.695313-21.519532c4.652344-.835937 9.117187 2.207032 10.042968 6.839844.925782 4.636719-2.027343 9.160156-6.644531 10.175781l-107.695312 21.523438c-.5625.109375-1.132813.164062-1.707031.164062zm0 0" fill="#84b5cb"/><path d="m310.214844 442.578125c-19.171875 0-34.710938-15.542969-34.710938-34.714844 0-19.167969 15.539063-34.710937 34.710938-34.710937s34.710937 15.542968 34.710937 34.710937c-.019531 19.164063-15.550781 34.691407-34.710937 34.714844zm0-52.070313c-9.585938 0-17.355469 7.769532-17.355469 17.355469 0 9.585938 7.769531 17.355469 17.355469 17.355469 9.585937 0 17.355468-7.769531 17.355468-17.355469-.007812-9.582031-7.773437-17.34375-17.355468-17.355469zm0 0" fill="#84b5cb"/></svg>